<svg version="1.2" xmlns="http://www.w3.org/2000/svg" viewBox="0 0 1551 639" width="1551" height="639"><style>.a{fill:#05164d}</style><path class="a" d="m1116.5 3.8c155.7 0 299.6 12.8 434.4 39.2l-45.1 43.5c-119.7-22.6-243.3-33.9-379.7-33.9h-35.4l-20.9 39.2h32.2c130.5 0 259.9 11.3 366.2 30.1l-42.9 41.3c-95.1-17.1-200.3-24.7-340.5-24.7h-39.2l-24.2 41.4c33.9-1.6 59.6-1.6 80.6-1.6 98.8 0 207.3 7.5 286.2 20.4l-43.5 41.3c-74.6-11.2-140.2-15-239-15-37.6 0-93.9 1.6-119.7 3.8l-33.9 41.3c46.8-3.8 91.9-5.9 142.4-5.9 61.7 0 134.2 3.8 211 12.9l-44.6 43.5c-52.6-5.9-108.4-9.7-147.6-9.7-148.3 0-254.6 24.7-340.5 76.8 102.5 110.6 280.3 176.1 478.5 176.1h18.8l-78.4 75.2c-299.7-60.1-514.5-153.6-755.6-325.9-185.3-133.2-258.3-178.3-434-258.9l-2.1-54.2 131 54.2 55.9-42.9 366.8 167-39.2 29.5-181.5-78.4-24.2 22.6 78.4 44.5c84.3 45.1 149.8 67.7 201.9 69.8 134.8 1.7 254.6-91.8 329.2-253.4 63.9-5.4 131-9.1 198.2-9.1z"/></svg>